<svg width="34" height="40" viewBox="0 0 34 40" version="1.1" xmlns="http://www.w3.org/2000/svg" xmlns:xlink="http://www.w3.org/1999/xlink">
<g id="Canvas" fill="none">
<g id="avatar">
<g id="Group">
<g id="Group_2">
<g id="Vector">
<path d="M 8.49417 21.5531C 8.53556 21.5531 8.57695 21.5531 8.62661 21.5531C 8.64316 21.5531 8.65972 21.5531 8.67627 21.5531C 8.70111 21.5531 8.73422 21.5531 8.75905 21.5531C 11.1843 21.5117 13.1461 20.6585 14.5946 19.0267C 17.7815 15.4318 17.2517 9.269 17.1938 8.68089C 16.9868 4.26589 14.9009 2.15366 13.1792 1.16794C 11.8962 0.430731 10.398 0.0331332 8.72594 0L 8.668 0C 8.65972 0 8.64316 0 8.63489 0L 8.58522 0C 7.66643 0 5.86195 0.149099 4.13196 1.13481C 2.3937 2.12052 0.274676 4.23276 0.0677397 8.68089C 0.00979767 9.269 -0.519957 15.4318 2.66686 19.0267C 4.10713 20.6585 6.06888 21.5117 8.49417 21.5531ZM 2.27782 8.88797C 2.27782 8.86312 2.28609 8.83827 2.28609 8.8217C 2.55925 2.88258 6.77246 2.24477 8.57694 2.24477L 8.61005 2.24477C 8.62661 2.24477 8.65144 2.24477 8.67627 2.24477C 10.9112 2.29447 14.7105 3.20563 14.9671 8.8217C 14.9671 8.84655 14.9671 8.8714 14.9754 8.88797C 14.9837 8.94595 15.5631 14.5786 12.9309 17.544C 11.8879 18.7202 10.4973 19.3001 8.668 19.3166C 8.65144 19.3166 8.64316 19.3166 8.62661 19.3166C 8.61005 19.3166 8.60178 19.3166 8.58522 19.3166C 6.76419 19.3001 5.3653 18.7202 4.33062 17.544C 1.70667 14.5952 2.26954 8.93767 2.27782 8.88797Z" transform="translate(8.36035 0)" fill="#184093"/>
</g>
<g id="Vector_2">
<path d="M 33.9977 10.3008C 33.9977 10.2925 33.9977 10.2842 33.9977 10.2759C 33.9977 10.2096 33.9894 10.1434 33.9894 10.0688C 33.9397 8.42873 33.8321 4.59357 30.2397 3.36764C 30.2149 3.35936 30.1818 3.35108 30.157 3.34279C 26.4238 2.39022 23.3198 0.23656 23.2867 0.21171C 22.7818 -0.144471 22.0865 -0.0202203 21.7305 0.48506C 21.3746 0.990341 21.4988 1.68614 22.0037 2.04232C 22.1444 2.14172 25.4388 4.43619 29.561 5.49645C 31.4896 6.18396 31.7048 8.2465 31.7628 10.1351C 31.7628 10.2096 31.7628 10.2759 31.7711 10.3422C 31.7793 11.0877 31.7297 12.239 31.5972 12.9017C 30.2563 13.6638 25.0001 16.2979 17.0041 16.2979C 9.04121 16.2979 3.75193 13.6555 2.40271 12.8934C 2.27027 12.2308 2.21233 11.0794 2.22888 10.3339C 2.22888 10.2676 2.23716 10.2014 2.23716 10.1268C 2.2951 8.23822 2.51032 6.17568 4.43896 5.48817C 8.56112 4.42791 11.8555 2.12515 11.9963 2.03403C 12.5012 1.67785 12.6253 0.982057 12.2694 0.476777C 11.9135 -0.0285041 11.2182 -0.152752 10.7133 0.203429C 10.6801 0.228279 7.59266 2.38193 3.84298 3.33451C 3.80987 3.34279 3.78504 3.35108 3.76021 3.35936C 0.167801 4.59357 0.060195 8.42873 0.0105303 10.0605C 0.0105303 10.1351 0.0105301 10.2014 0.00225271 10.2676C 0.00225271 10.2759 0.00225271 10.2842 0.00225271 10.2925C -0.00602473 10.7232 -0.014302 12.9348 0.424402 14.0448C 0.507176 14.2602 0.65617 14.4424 0.854829 14.5667C 1.10315 14.7323 7.05463 18.5261 17.0124 18.5261C 26.9701 18.5261 32.9216 14.724 33.1699 14.5667C 33.3603 14.4424 33.5176 14.2602 33.6004 14.0448C 34.0142 12.9431 34.006 10.7315 33.9977 10.3008Z" transform="translate(0 21.4739)" fill="#184093"/>
</g>
</g>
</g>
</g>
</g>
</svg>

