<svg width="46" height="26" viewBox="0 0 46 26" version="1.1" xmlns="http://www.w3.org/2000/svg" xmlns:xlink="http://www.w3.org/1999/xlink">
<g id="Canvas" fill="none">
<g id="delivery">
<g id="Group">
<g id="Group_2">
<g id="Vector">
<path d="M 45.2333 3.83088L 38.6477 3.83088L 38.6477 1.56408C 38.6477 0.700249 37.9372 1.78707e-07 37.0607 1.78707e-07L 14.1833 1.78707e-07C 13.3068 1.78707e-07 12.5963 0.700249 12.5963 1.56408L 12.5963 6.27901L 6.417 6.27901C 6.14196 6.27797 5.88752 6.4221 5.75 6.65681L 2.63733 12.014L 0.766667 12.014C 0.343275 12.014 0 12.3523 0 12.7696L 0 21.2323C 0 21.6495 0.343275 21.9879 0.766667 21.9879L 3.00533 21.9879C 3.43189 24.1975 5.59523 25.6479 7.83725 25.2275C 9.50379 24.9149 10.8072 23.6303 11.1243 21.9879L 13.363 21.9879C 13.4778 21.9848 13.5905 21.9564 13.6927 21.9047C 13.8481 21.9578 14.0112 21.9859 14.1757 21.9879L 24.2037 21.9879C 24.6302 24.1975 26.7936 25.6479 29.0356 25.2275C 30.7021 24.9149 32.0056 23.6303 32.3227 21.9879L 37.0607 21.9879C 37.9372 21.9879 38.6477 21.2876 38.6477 20.4238L 38.6477 13.5252L 43.6003 13.5252C 44.0237 13.5252 44.367 13.1869 44.367 12.7696C 44.367 12.3523 44.0237 12.014 43.6003 12.014L 38.6477 12.014L 38.6477 9.42985L 39.514 9.42985C 39.9374 9.42985 40.2807 9.09153 40.2807 8.67425C 40.2807 8.25697 39.9374 7.91865 39.514 7.91865L 38.6477 7.91865L 38.6477 5.34207L 45.2333 5.34207C 45.6567 5.34207 46 5.00375 46 4.58647C 46 4.16919 45.6567 3.83088 45.2333 3.83088ZM 6.86167 7.82042L 12.5963 7.82042L 12.5963 12.014L 4.40833 12.014L 6.86167 7.82042ZM 7.06867 23.7937C 7.06608 23.7937 7.06359 23.7937 7.061 23.7937L 7.06867 23.7937C 5.62906 23.7937 4.462 22.6435 4.462 21.2247C 4.462 19.8059 5.62906 18.6557 7.06867 18.6557C 8.50828 18.6557 9.67533 19.8059 9.67533 21.2247C 9.67533 22.6435 8.50828 23.7937 7.06867 23.7937ZM 11.1243 20.4691C 10.6978 18.2595 8.53444 16.8091 6.29242 17.2295C 4.62588 17.542 3.32245 18.8266 3.00533 20.4691L 1.53333 20.4691L 1.53333 13.5252L 12.5963 13.5252L 12.5963 20.4691L 11.1243 20.4691ZM 28.2747 23.7937C 28.2721 23.7937 28.2696 23.7937 28.267 23.7937L 28.2747 23.7937C 26.8351 23.7937 25.668 22.6435 25.668 21.2247C 25.668 19.8059 26.8351 18.6557 28.2747 18.6557C 29.7143 18.6557 30.8813 19.8059 30.8813 21.2247C 30.8813 22.6435 29.7143 23.7937 28.2747 23.7937ZM 37.122 3.8611L 33.4573 3.8611C 33.0339 3.8611 32.6907 4.19942 32.6907 4.61669C 32.6907 5.03397 33.0339 5.37229 33.4573 5.37229L 37.1067 5.37229L 37.1067 7.92621L 27.7303 7.92621C 27.3069 7.92621 26.9637 8.26453 26.9637 8.6818C 26.9637 9.09908 27.3069 9.4374 27.7303 9.4374L 37.0913 9.4374L 37.0913 12.0215L 31.8167 12.0215C 31.3933 12.0221 31.0505 12.3609 31.0511 12.7782C 31.0516 13.1947 31.394 13.5322 31.8167 13.5327L 37.076 13.5327L 37.076 20.4767L 32.3303 20.4767C 31.9038 18.267 29.7404 16.8167 27.4984 17.237C 25.8319 17.5496 24.5284 18.8342 24.2113 20.4767L 14.1373 20.4313L 14.191 1.54142L 37.122 1.59431L 37.122 3.8611Z" transform="translate(46 0) scale(-1 1)" fill="white"/>
</g>
</g>
</g>
</g>
</g>
</svg>

