<svg width="40" height="40" viewBox="0 0 40 40" version="1.1" xmlns="http://www.w3.org/2000/svg" xmlns:xlink="http://www.w3.org/1999/xlink">
<g id="Canvas" fill="none">
<g id="box">
<g id="Group">
<g id="Group_2">
<g id="Vector">
<path d="M 17.3796 0.382888C 17.1091 -0.0159122 16.5667 -0.119948 16.1679 0.150391C 16.1382 0.170565 16.1098 0.192484 16.0828 0.216148L 4.05218 9.49859L 1.64433 4.08092C 1.41968 3.65464 0.892093 3.49118 0.465812 3.71582C 0.0762807 3.92106 -0.0991834 4.38441 0.0565418 4.7963L 2.95294 11.226C 3.06265 11.4698 3.27802 11.6498 3.53746 11.7145C 3.60703 11.7229 3.67726 11.7229 3.74684 11.7145C 3.93964 11.714 4.12677 11.6495 4.27901 11.5313L 17.1471 1.59456C 17.5459 1.32411 17.6499 0.781689 17.3796 0.382888Z" transform="translate(12.9072 21.7773)" fill="#184093"/>
</g>
</g>
</g>
<g id="Group_3">
<g id="Group_4">
<g id="Vector_2">
<path d="M 39.5114 8.41003L 39.5114 8.34024C 39.4964 8.30425 39.4788 8.26925 39.4591 8.23555L 34.1374 0.383861C 33.9749 0.143403 33.7035 -0.000435216 33.4133 9.89292e-07L 6.19411 9.89292e-07C 5.90393 -0.000435216 5.6325 0.143403 5.47001 0.383861L 0.14831 8.23555C 0.128571 8.26925 0.111014 8.30425 0.0959651 8.34024L 0.0959651 8.41003C 0.0584515 8.50458 0.0378408 8.60502 0.0348964 8.70665L 0.0348964 39.1276L 4.15998e-09 39.1276C 4.15998e-09 39.6094 0.390622 40 0.87241 40L 38.7001 40C 39.1819 40 39.5725 39.6094 39.5725 39.1276L 39.5725 8.70665C 39.5696 8.60502 39.549 8.50458 39.5114 8.41003ZM 23.9651 1.75355L 32.8724 1.75355L 37.0513 7.86041L 23.9651 7.86041L 23.9651 1.75355ZM 18.8877 1.75355L 22.2377 1.75355L 22.2377 7.86041L 17.5442 7.86041L 18.8877 1.75355ZM 22.2377 9.60524L 22.2377 19.7775L 20.2399 18.5562C 19.97 18.4003 19.6374 18.4003 19.3675 18.5562L 17.3697 19.7775L 17.3261 9.60524L 22.2377 9.60524ZM 6.70011 1.75355L 17.169 1.75355L 15.8255 7.86041L 2.52127 7.86041L 6.70011 1.75355ZM 37.8277 38.2552L 1.74482 38.2552L 1.74482 9.59651L 15.59 9.59651L 15.59 21.3391C 15.5919 21.8209 15.9842 22.2099 16.466 22.208C 16.6248 22.2073 16.7804 22.1634 16.916 22.0807L 19.7863 20.3359L 22.6565 22.0807C 23.068 22.3313 23.6048 22.2008 23.8553 21.7892C 23.9378 21.6535 23.9819 21.4979 23.9825 21.3391L 23.9825 9.59651L 37.8277 9.59651L 37.8277 38.2552Z" fill="#184093"/>
</g>
</g>
</g>
</g>
</g>
</svg>

