<svg width="20" height="20" viewBox="0 0 20 20" version="1.1" xmlns="http://www.w3.org/2000/svg" xmlns:xlink="http://www.w3.org/1999/xlink">
<g id="Canvas" fill="none">
<g id="cancel" opacity="0.3">
<g id="Group">
<g id="Group_2">
<g id="Vector">
<path d="M 17.0707 2.92929C 15.181 1.03956 12.6726 0 10 0C 7.32744 0 4.81902 1.03956 2.92929 2.92929C 1.03956 4.81902 0 7.32744 0 10C 0 12.6726 1.03956 15.181 2.92929 17.0707C 4.81902 18.9604 7.32744 20 10 20C 12.6726 20 15.181 18.9604 17.0707 17.0707C 18.9604 15.181 20 12.6726 20 10C 20 7.32744 18.9604 4.81902 17.0707 2.92929ZM 16.2668 16.2668C 14.5918 17.9419 12.3653 18.8636 10 18.8636C 7.63468 18.8636 5.40825 17.9419 3.73316 16.2668C 0.277778 12.8114 0.277778 7.18855 3.73316 3.73316C 5.40825 2.05808 7.63468 1.13636 10 1.13636C 12.3653 1.13636 14.5918 2.05808 16.2668 3.73316C 19.7222 7.18855 19.7222 12.8114 16.2668 16.2668Z" fill="black"/>
</g>
<g id="Vector_2">
<path d="M 8.98043 0.167298C 8.75736 -0.0557663 8.39962 -0.0557663 8.17656 0.167298L 4.57386 3.76999L 0.97117 0.167298C 0.748106 -0.0557663 0.390362 -0.0557663 0.167298 0.167298C -0.0557663 0.390362 -0.0557663 0.748106 0.167298 0.97117L 3.76999 4.57386L 0.167298 8.17656C -0.0557663 8.39962 -0.0557663 8.75736 0.167298 8.98043C 0.276725 9.08986 0.424032 9.14878 0.567129 9.14878C 0.710227 9.14878 0.857533 9.09406 0.966961 8.98043L 4.56965 5.37774L 8.17235 8.98043C 8.28178 9.08986 8.42908 9.14878 8.57218 9.14878C 8.71949 9.14878 8.86258 9.09406 8.97201 8.98043C 9.19508 8.75736 9.19508 8.39962 8.97201 8.17656L 5.37774 4.57386L 8.98043 0.97117C 9.20349 0.748106 9.20349 0.390362 8.98043 0.167298Z" transform="translate(5.42578 5.42615)" fill="black"/>
</g>
</g>
</g>
</g>
</g>
</svg>

