<svg width="40" height="54" viewBox="0 0 40 54" version="1.1" xmlns="http://www.w3.org/2000/svg" xmlns:xlink="http://www.w3.org/1999/xlink">
<g id="Canvas" fill="none">
<g id="file">
<g id="Group">
<g id="Group_2">
<g id="Vector">
<path d="M 39.9974 10.9296C 39.9938 10.6052 39.8699 10.2873 39.6343 10.0488L 30.0734 0.370302C 30.073 0.36988 30.0727 0.369774 30.0722 0.369458C 29.8465 0.141117 29.5345 0 29.1902 0L 2.62952 0C 1.17952 0 9.53878e-08 1.19391 9.53878e-08 2.66172L 9.53878e-08 51.3383C 9.53878e-08 52.806 1.17942 54 2.62941 54L 37.3706 54C 38.8205 54 40 52.8061 40 51.3383L 40 10.9427C 40.0002 10.9381 39.9978 10.9342 39.9974 10.9296ZM 30.4392 4.31695L 35.7355 9.67836L 30.5707 9.67836C 30.4983 9.67836 30.4392 9.61856 30.4392 9.54526L 30.4392 4.31695ZM 37.5021 51.3384C 37.5021 51.4117 37.4431 51.4714 37.3707 51.4714L 2.62952 51.4714C 2.55711 51.4714 2.49814 51.4117 2.49814 51.3384L 2.49814 2.66172C 2.49814 2.58842 2.55711 2.52872 2.62952 2.52872L 27.9412 2.52872L 27.9412 9.54526C 27.9412 11.013 29.1208 12.2072 30.5708 12.2072L 37.5022 12.2072L 37.5022 51.3384L 37.5021 51.3384Z" fill="#184093"/>
</g>
</g>
</g>
<g id="Group_3">
<g id="Group_4">
<g id="Vector_2">
<path d="M 23.3554 7.98227e-07L 1.24902 7.98227e-07C 0.559286 7.98227e-07 -4.19706e-07 0.566052 -4.19706e-07 1.26436C -4.19706e-07 1.96257 0.559286 2.52872 1.24902 2.52872L 23.3553 2.52872C 24.045 2.52872 24.6043 1.96257 24.6043 1.26436C 24.6044 0.566052 24.045 7.98227e-07 23.3554 7.98227e-07Z" transform="translate(7.69824 17.2979)" fill="#184093"/>
</g>
</g>
</g>
<g id="Group_5">
<g id="Group_6">
<g id="Vector_3">
<path d="M 23.3554 -3.3474e-07L 1.24902 -3.3474e-07C 0.559286 -3.3474e-07 -4.19706e-07 0.566158 -4.19706e-07 1.26436C -4.19706e-07 1.96257 0.559286 2.52872 1.24902 2.52872L 23.3553 2.52872C 24.045 2.52872 24.6043 1.96257 24.6043 1.26436C 24.6044 0.566158 24.045 -3.3474e-07 23.3554 -3.3474e-07Z" transform="translate(7.69824 24.9282)" fill="#184093"/>
</g>
</g>
</g>
<g id="Group_7">
<g id="Group_8">
<g id="Vector_4">
<path d="M 23.3554 1.00422e-06L 1.24902 1.00422e-06C 0.559286 1.00422e-06 -4.19706e-07 0.566156 -4.19706e-07 1.26436C -4.19706e-07 1.96267 0.559286 2.52872 1.24902 2.52872L 23.3553 2.52872C 24.045 2.52872 24.6043 1.96267 24.6043 1.26436C 24.6044 0.566261 24.045 1.00422e-06 23.3554 1.00422e-06Z" transform="translate(7.69824 32.5576)" fill="#184093"/>
</g>
</g>
</g>
<g id="Group_9">
<g id="Group_10">
<g id="Vector_5">
<path d="M 12.3022 6.17982e-07L 1.24902 6.17982e-07C 0.559286 6.17982e-07 -4.19706e-07 0.566159 -4.19706e-07 1.26436C -4.19706e-07 1.96267 0.559286 2.52872 1.24902 2.52872L 12.3022 2.52872C 12.9919 2.52872 13.5512 1.96267 13.5512 1.26436C 13.5512 0.566053 12.9919 6.17982e-07 12.3022 6.17982e-07Z" transform="translate(7.69824 40.187)" fill="#184093"/>
</g>
</g>
</g>
</g>
</g>
</svg>

