<svg width="34" height="40" viewBox="0 0 34 40" version="1.1" xmlns="http://www.w3.org/2000/svg" xmlns:xlink="http://www.w3.org/1999/xlink">
<g id="Canvas" fill="none">
<g id="check-list">
<g id="Group">
<g id="Vector">
<path d="M 4.6191 24.1466C 5.15953 24.046 5.71921 23.9926 6.29264 23.9926C 7.0111 23.9926 7.70789 24.0763 8.37231 24.2323L 8.37231 0.79529C 8.37231 0.35618 7.97333 0 7.48132 0L 3.57776e-07 0L 3.57776e-07 1.9793L 4.6191 1.9793L 4.6191 24.1466Z" transform="translate(20.7969 2.53125)" fill="#184093"/>
</g>
<g id="Vector_2">
<path d="M 3.75295 33.4544L 3.75295 1.9793L 8.37231 1.9793L 8.37231 0L 0.890739 0C 0.398858 0 -1.55555e-08 0.35618 -1.55555e-08 0.79529L -1.55555e-08 35.2071C -1.55555e-08 35.6463 0.398858 36.0024 0.890739 36.0024L 20.8318 36.0024C 20.1336 35.2632 19.5956 34.3999 19.2681 33.4544L 3.75295 33.4544Z" transform="translate(0 2.53125)" fill="#184093"/>
</g>
<g id="Vector_3">
<path d="M 0.382929 5.13395L 9.49344 5.13395C 9.70472 5.13395 9.87625 4.98095 9.87625 4.79222L 9.87625 1.40766C 9.87625 1.21893 9.70472 1.06592 9.49344 1.06592L 8.05221 1.06592C 7.82436 0.447187 7.17293 0 6.40351 0L 3.47261 0C 2.70331 0 2.05188 0.447187 1.82391 1.06592L 0.382802 1.06592C 0.171267 1.06592 -3.34443e-07 1.21893 -3.34443e-07 1.40766L -3.34443e-07 4.79222C 0.000254527 4.98095 0.171394 5.13395 0.382929 5.13395Z" transform="translate(9.64648 0)" fill="#184093"/>
</g>
<g id="Vector_4">
<path d="M 4.74442e-07 0.284398L 4.74442e-07 2.10454C 4.74442e-07 2.26165 0.142595 2.38894 0.318577 2.38894L 2.35746 2.38894C 2.53345 2.38894 2.67604 2.26165 2.67604 2.10454L 2.67604 0.284398C 2.67604 0.127296 2.53345 -2.01356e-07 2.35746 -2.01356e-07L 0.318577 -2.01356e-07C 0.142723 -2.01356e-07 4.74442e-07 0.127296 4.74442e-07 0.284398Z" transform="translate(6.51465 8.37891)" fill="#184093"/>
</g>
<g id="Vector_5">
<path d="M 10.8742 0.284398C 10.8742 0.127296 10.7316 -2.01356e-07 10.5556 -2.01356e-07L 0.318577 -2.01356e-07C 0.142595 -2.01356e-07 4.97775e-07 0.127296 4.97775e-07 0.284398L 4.97775e-07 2.10454C 4.97775e-07 2.26165 0.142595 2.38894 0.318577 2.38894L 10.5556 2.38894C 10.7316 2.38894 10.8742 2.26165 10.8742 2.10454L 10.8742 0.284398Z" transform="translate(11.7822 8.37891)" fill="#184093"/>
</g>
<g id="Vector_6">
<path d="M 2.67604 0.284398C 2.67604 0.127296 2.53345 -2.01356e-07 2.35746 -2.01356e-07L 0.318577 -2.01356e-07C 0.142595 -2.01356e-07 4.74442e-07 0.127296 4.74442e-07 0.284398L 4.74442e-07 2.10455C 4.74442e-07 2.26165 0.142595 2.38894 0.318577 2.38894L 2.35746 2.38894C 2.53345 2.38894 2.67604 2.26165 2.67604 2.10455L 2.67604 0.284398Z" transform="translate(6.51465 14.0669)" fill="#184093"/>
</g>
<g id="Vector_7">
<path d="M 10.8742 0.284398C 10.8742 0.127296 10.7316 -2.01356e-07 10.5556 -2.01356e-07L 0.318577 -2.01356e-07C 0.142595 -2.01356e-07 4.97775e-07 0.127296 4.97775e-07 0.284398L 4.97775e-07 2.10455C 4.97775e-07 2.26165 0.142595 2.38894 0.318577 2.38894L 10.5556 2.38894C 10.7316 2.38894 10.8742 2.26165 10.8742 2.10455L 10.8742 0.284398Z" transform="translate(11.7822 14.0669)" fill="#184093"/>
</g>
<g id="Vector_8">
<path d="M 2.67604 0.284399C 2.67604 0.127297 2.53345 6.66558e-07 2.35746 6.66558e-07L 0.318577 6.66558e-07C 0.142595 6.66558e-07 4.74442e-07 0.127297 4.74442e-07 0.284399L 4.74442e-07 2.10455C 4.74442e-07 2.26165 0.142595 2.38894 0.318577 2.38894L 2.35746 2.38894C 2.53345 2.38894 2.67604 2.26165 2.67604 2.10455L 2.67604 0.284399Z" transform="translate(6.51465 19.7549)" fill="#184093"/>
</g>
<g id="Vector_9">
<path d="M 10.8742 0.284399C 10.8742 0.127297 10.7316 6.66558e-07 10.5556 6.66558e-07L 0.318577 6.66558e-07C 0.142595 6.66558e-07 4.97775e-07 0.127297 4.97775e-07 0.284399L 4.97775e-07 2.10455C 4.97775e-07 2.26165 0.142595 2.38894 0.318577 2.38894L 10.5556 2.38894C 10.7316 2.38894 10.8742 2.26165 10.8742 2.10455L 10.8742 0.284399Z" transform="translate(11.7822 19.7549)" fill="#184093"/>
</g>
<g id="Vector_10">
<path d="M 2.35746 6.66558e-07L 0.318577 6.66558e-07C 0.142595 6.66558e-07 4.74442e-07 0.127297 4.74442e-07 0.284399L 4.74442e-07 2.10455C 4.74442e-07 2.26165 0.142595 2.38894 0.318577 2.38894L 2.35746 2.38894C 2.53345 2.38894 2.67604 2.26165 2.67604 2.10455L 2.67604 0.284399C 2.67604 0.127297 2.53345 6.66558e-07 2.35746 6.66558e-07Z" transform="translate(6.51465 25.4429)" fill="#184093"/>
</g>
<g id="Vector_11">
<path d="M 10.5556 6.66558e-07L 0.318577 6.66558e-07C 0.142595 6.66558e-07 4.97775e-07 0.127297 4.97775e-07 0.284399L 4.97775e-07 2.10455C 4.97775e-07 2.26165 0.142595 2.38894 0.318577 2.38894L 10.5556 2.38894C 10.7651 2.38894 10.8742 2.21102 10.8742 2.10455L 10.8742 0.284399C 10.8742 0.127297 10.7314 6.66558e-07 10.5556 6.66558e-07Z" transform="translate(11.7822 25.4429)" fill="#184093"/>
</g>
<g id="Vector_12">
<path d="M 6.91081 6.66558e-07C 3.09414 6.66558e-07 -2.79999e-07 2.76219 -2.79999e-07 6.16939C -2.79999e-07 9.5767 3.09414 12.3388 6.91081 12.3388C 10.7277 12.3388 13.8216 9.5767 13.8216 6.16939C 13.8217 2.7623 10.7277 6.66558e-07 6.91081 6.66558e-07ZM 10.1353 5.35146L 6.95108 8.19407C 6.76452 8.36062 6.51985 8.444 6.27531 8.444C 6.03077 8.444 5.78611 8.36073 5.59955 8.19419L 3.68656 6.48655C 3.31332 6.15335 3.31332 5.61311 3.68644 5.2799C 4.05981 4.9467 4.66472 4.9467 5.03809 5.2799L 6.27519 6.38428L 8.78366 4.14493C 9.1569 3.81173 9.76207 3.81173 10.1352 4.14493C 10.5086 4.47802 10.5086 5.01826 10.1353 5.35146Z" transform="translate(20.1787 27.6611)" fill="#184093"/>
</g>
</g>
</g>
</g>
</svg>

