<svg width="10" height="10" viewBox="0 0 10 10" version="1.1" xmlns="http://www.w3.org/2000/svg" xmlns:xlink="http://www.w3.org/1999/xlink">
<g id="Canvas" fill="none">
<g id="Vector">
<path d="M 8.98043 0.167298C 8.75736 -0.0557663 8.39962 -0.0557663 8.17656 0.167298L 4.57386 3.76999L 0.97117 0.167298C 0.748106 -0.0557663 0.390362 -0.0557663 0.167298 0.167298C -0.0557663 0.390362 -0.0557663 0.748106 0.167298 0.97117L 3.76999 4.57386L 0.167298 8.17656C -0.0557663 8.39962 -0.0557663 8.75736 0.167298 8.98043C 0.276725 9.08986 0.424032 9.14878 0.567129 9.14878C 0.710227 9.14878 0.857533 9.09406 0.966961 8.98043L 4.56965 5.37774L 8.17235 8.98043C 8.28178 9.08986 8.42908 9.14878 8.57218 9.14878C 8.71949 9.14878 8.86258 9.09406 8.97201 8.98043C 9.19508 8.75736 9.19508 8.39962 8.97201 8.17656L 5.37774 4.57386L 8.98043 0.97117C 9.20349 0.748106 9.20349 0.390362 8.98043 0.167298Z" transform="translate(0.425781 0.426147)" fill="black"/>
</g>
</g>
</svg>

