<svg width="40" height="40" viewBox="0 0 40 40" version="1.1" xmlns="http://www.w3.org/2000/svg" xmlns:xlink="http://www.w3.org/1999/xlink">
<g id="Canvas" fill="none">
<g id="cogwheel">
<g id="Group">
<g id="Group_2">
<g id="Group_3">
<g id="Vector">
<path d="M 39.1375 15.1482L 35.2561 15.1482C 35.0943 14.717 34.9326 14.2857 34.7709 13.8544C 34.6092 13.4232 34.3935 12.9919 34.1779 12.6146L 36.9272 9.86523C 37.2507 9.54178 37.2507 9.0027 36.9272 8.67925L 31.3208 3.07278C 30.9973 2.74933 30.4582 2.74933 30.1348 3.07278L 27.3854 5.8221C 26.9542 5.60647 26.5768 5.39084 26.1456 5.22911C 25.7143 5.06739 25.283 4.90566 24.8518 4.74394L 24.8518 0.862534C 24.8518 0.377359 24.4744 0 23.9892 0L 16.0108 0C 15.5256 0 15.1482 0.377359 15.1482 0.862534L 15.1482 4.74394C 14.717 4.90566 14.2857 5.06739 13.8544 5.22911C 13.4232 5.39084 12.9919 5.60647 12.6146 5.8221L 9.86523 3.07278C 9.54178 2.74933 9.0027 2.74933 8.67925 3.07278L 3.07278 8.67925C 2.74933 9.0027 2.74933 9.54178 3.07278 9.86523L 5.8221 12.6146C 5.60647 13.0458 5.39084 13.4232 5.22911 13.8544C 5.06739 14.2857 4.90566 14.717 4.74394 15.1482L 0.862534 15.1482C 0.377359 15.1482 0 15.5256 0 16.0108L 0 23.9353C 0 24.4205 0.377359 24.7978 0.862534 24.7978L 4.74394 24.7978C 4.90566 25.2291 5.06739 25.6604 5.22911 26.0916C 5.39084 26.5229 5.60647 26.9542 5.8221 27.3315L 3.07278 30.0809C 2.74933 30.4043 2.74933 30.9434 3.07278 31.2668L 8.67925 36.9272C 9.0027 37.2507 9.54178 37.2507 9.86523 36.9272L 12.6146 34.1779C 13.0458 34.3935 13.4232 34.6092 13.8544 34.7709C 14.2857 34.9326 14.717 35.0943 15.1482 35.2561L 15.1482 39.1375C 15.1482 39.6226 15.5256 40 16.0108 40L 23.9353 40C 24.4205 40 24.7978 39.6226 24.7978 39.1375L 24.7978 35.2561C 25.2291 35.0943 25.6604 34.9326 26.0916 34.7709C 26.5229 34.6092 26.9542 34.3935 27.3315 34.1779L 30.0809 36.9272C 30.4043 37.2507 30.9434 37.2507 31.2668 36.9272L 36.9272 31.3208C 37.2507 30.9973 37.2507 30.4582 36.9272 30.1348L 34.1779 27.3854C 34.3935 26.9542 34.6092 26.5768 34.7709 26.1456C 34.9326 25.7143 35.0943 25.283 35.2561 24.8518L 39.1375 24.8518C 39.6226 24.8518 40 24.4744 40 23.9892L 40 16.0108C 40 15.5795 39.6226 15.1482 39.1375 15.1482ZM 38.3288 23.1267L 38.2749 23.1267L 34.6092 23.1267C 34.1779 23.1267 33.8544 23.3962 33.7466 23.8275C 33.5849 24.4205 33.3693 24.9596 33.1536 25.4987C 32.938 26.0916 32.6685 26.6307 32.345 27.1159C 32.1294 27.4394 32.2372 27.8706 32.5067 28.1402L 35.0943 30.7278L 30.6739 35.1482L 28.0863 32.5606C 27.8167 32.2911 27.3315 32.2372 27.0081 32.4528C 26.469 32.7763 25.9299 32.9919 25.3908 33.2615C 24.8518 33.4771 24.2588 33.6927 23.6658 33.8545C 23.2884 33.9623 23.0189 34.2857 23.0189 34.6631L 23.0189 38.3288L 16.8733 38.3288L 16.8733 34.6631C 16.8733 34.2318 16.6038 33.9084 16.1725 33.8005C 15.5795 33.6388 15.0404 33.4232 14.5013 33.2075C 13.9084 32.9919 13.3693 32.7224 12.8841 32.3989C 12.5606 32.1833 12.1294 32.2911 11.8598 32.5606L 9.27224 35.1482L 4.85175 30.7278L 7.43935 28.1402C 7.7089 27.8706 7.7628 27.3854 7.54717 27.062C 7.22372 26.5229 7.00809 25.9838 6.73854 25.4447C 6.52291 24.9057 6.30728 24.3127 6.14555 23.7197C 6.03774 23.3423 5.71429 23.0728 5.33693 23.0728L 1.67116 23.0728L 1.67116 16.8733L 5.33693 16.8733C 5.76819 16.8733 6.09164 16.6038 6.19946 16.1725C 6.36119 15.5795 6.57682 15.0404 6.79245 14.5013C 7.00809 13.9084 7.27763 13.3693 7.60108 12.8841C 7.81671 12.5606 7.7089 12.1294 7.43935 11.8598L 4.85175 9.27224L 9.27224 4.85175L 11.8598 7.43935C 12.1294 7.7089 12.6146 7.7628 12.938 7.54717C 13.4771 7.22372 14.0162 7.00809 14.5553 6.73854C 15.0943 6.52291 15.6873 6.30728 16.2803 6.14555C 16.6577 6.03774 16.9272 5.71429 16.9272 5.33693L 16.9272 1.67116L 23.1806 1.67116L 23.1806 5.33693C 23.1806 5.76819 23.4501 6.09164 23.8814 6.19946C 24.4744 6.36119 25.0135 6.57682 25.5526 6.79245C 26.1456 7.00809 26.6846 7.27763 27.1698 7.60108C 27.4933 7.81671 27.9245 7.7089 28.1941 7.43935L 30.7817 4.85175L 35.2022 9.27224L 32.6146 11.8598C 32.2911 12.1833 32.2911 12.6146 32.5067 12.938C 32.7763 13.4232 33.0458 13.9623 33.2615 14.5013C 33.4771 15.0404 33.6927 15.6334 33.8545 16.2264C 33.9623 16.6038 34.2857 16.8733 34.6631 16.8733L 38.3288 16.8733L 38.3288 23.1267Z" fill="#184093"/>
</g>
<g id="Vector_2">
<path d="M 8.78706 -4.11288e-07C 6.36119 -4.11288e-07 4.15094 0.970351 2.5876 2.5876C 0.970351 4.20485 -4.11288e-07 6.36119 -4.11288e-07 8.78706C -4.11288e-07 11.2129 0.970351 13.4232 2.5876 14.9865C 4.20485 16.6038 6.36119 17.5741 8.78706 17.5741C 11.2129 17.5741 13.4232 16.6038 14.9865 14.9865C 16.6038 13.3693 17.5741 11.2129 17.5741 8.78706C 17.5741 6.36119 16.6038 4.15094 14.9865 2.5876C 13.4232 0.970351 11.2129 -4.11288e-07 8.78706 -4.11288e-07ZM 13.8005 13.8005C 12.5067 15.0943 10.7278 15.903 8.78706 15.903C 6.84636 15.903 5.06739 15.0943 3.77358 13.8005C 2.47978 12.5067 1.67116 10.7278 1.67116 8.78706C 1.67116 6.84636 2.47978 5.06739 3.77358 3.77358C 5.06739 2.47978 6.84636 1.67116 8.78706 1.67116C 10.7278 1.67116 12.5067 2.47978 13.8005 3.77358C 15.0943 5.06739 15.903 6.84636 15.903 8.78706C 15.903 10.7278 15.0943 12.5067 13.8005 13.8005Z" transform="translate(11.2129 11.2129)" fill="#184093"/>
</g>
</g>
</g>
</g>
</g>
</g>
</svg>

