<svg width="41" height="40" viewBox="0 0 41 40" version="1.1" xmlns="http://www.w3.org/2000/svg" xmlns:xlink="http://www.w3.org/1999/xlink">
<g id="Canvas" fill="none">
<g id="discount">
<g id="Group">
<g id="Group_2">
<g id="Vector">
<path d="M 6.87136 2.47743C 6.73113 1.96325 6.49741 1.49581 6.1702 1.12185C 5.84299 0.747903 5.46904 0.46744 5.04834 0.280464C 4.58091 0.0934882 4.06672 1.35519e-07 3.5058 1.35519e-07C 2.71115 1.35519e-07 2.00999 0.186976 1.49581 0.514184C 0.981623 0.841391 0.607671 1.35557 0.373952 2.00999C 0.093488 2.6644 -4.27954e-07 3.5058 -4.27954e-07 4.48742C -4.27954e-07 5.4223 0.140231 6.1702 0.467439 6.82462C 0.747903 7.47903 1.1686 7.94647 1.72953 8.22693C 2.29045 8.5074 2.89812 8.69437 3.55254 8.69437C 4.67439 8.69437 5.51578 8.32042 6.1702 7.61926C 6.82462 6.9181 7.10508 5.84299 7.10508 4.39393C 7.10508 3.64603 7.01159 3.03836 6.87136 2.47743ZM 4.67439 6.54415C 4.48742 7.01159 4.11347 7.24531 3.55254 7.24531C 3.17859 7.24531 2.89812 7.15182 2.6644 6.9181C 2.43068 6.68438 2.29045 6.40392 2.24371 5.98322C 2.15022 5.56253 2.10348 5.0016 2.10348 4.34719C 2.10348 3.69277 2.15022 3.17859 2.24371 2.75789C 2.3372 2.3372 2.47743 2.00999 2.6644 1.82301C 2.89812 1.58929 3.17859 1.49581 3.55254 1.49581C 4.06672 1.49581 4.48742 1.72953 4.67439 2.15022C 4.90811 2.61766 5.0016 3.31882 5.0016 4.30044C 4.95486 5.28206 4.86137 6.02997 4.67439 6.54415Z" transform="translate(10.6445 10.8784)" fill="#184093"/>
</g>
</g>
</g>
<g id="Group_3">
<g id="Group_4">
<g id="Vector_2">
<path d="M 11.2653 0.186975C 11.1251 0.0467435 10.9381 -2.21109e-07 10.7044 -2.21109e-07C 10.4706 -2.21109e-07 10.2837 0.0467435 10.1434 0.186975C 10.0032 0.327207 9.86297 0.514183 9.72274 0.794647L 0.23372 16.1734C 0.0934878 16.4071 -7.13256e-08 16.5941 -7.13256e-08 16.7343C -7.13256e-08 16.9681 0.093488 17.1083 0.280464 17.2485C 0.467439 17.3887 0.607671 17.4355 0.794647 17.4355C 1.07511 17.4355 1.35557 17.2485 1.58929 16.8278L 11.0316 1.58929C 11.3588 1.1686 11.499 0.841391 11.499 0.701159C 11.499 0.467439 11.4055 0.327207 11.2653 0.186975Z" transform="translate(14.2441 10.7849)" fill="#184093"/>
</g>
</g>
</g>
<g id="Group_5">
<g id="Group_6">
<g id="Vector_3">
<path d="M 6.87136 2.43068C 6.68438 1.86976 6.45066 1.40232 6.1702 1.07511C 5.84299 0.701158 5.46904 0.420696 5.04835 0.280464C 4.62765 0.0934886 4.11347 -3.99423e-07 3.5058 -3.99423e-07C 2.29045 -3.99423e-07 1.40232 0.373952 0.841391 1.12185C 0.280464 1.86976 2.85302e-07 2.99161 2.85302e-07 4.44067C 2.85302e-07 5.37555 0.140232 6.12346 0.46744 6.77787C 0.794647 7.38554 1.21534 7.85298 1.72953 8.18019C 2.29045 8.46065 2.89812 8.64763 3.55254 8.64763C 4.67439 8.64763 5.51579 8.27368 6.1702 7.57252C 6.82462 6.87136 7.10508 5.79625 7.10508 4.34719C 7.10508 3.59928 7.01159 2.99161 6.87136 2.43068ZM 4.62765 6.45066C 4.44067 6.9181 4.06672 7.15182 3.5058 7.15182C 2.94487 7.15182 2.57092 6.9181 2.38394 6.45066C 2.15022 5.98322 2.05673 5.23532 2.05673 4.20695C 2.05673 3.55254 2.10348 2.99161 2.19697 2.61766C 2.29045 2.19697 2.43069 1.9165 2.66441 1.68278C 2.89812 1.44906 3.17859 1.35557 3.55254 1.35557C 4.06672 1.35557 4.48742 1.58929 4.67439 2.00999C 4.90811 2.47743 5.0016 3.17859 5.0016 4.16021C 4.95486 5.23532 4.86137 5.98322 4.62765 6.45066Z" transform="translate(22.2842 19.1521)" fill="#184093"/>
</g>
</g>
</g>
<g id="Group_7">
<g id="Group_8">
<g id="Vector_4">
<path d="M 37.7095 19.9936L 39.7663 16.628C 40.1402 16.3008 40.0467 15.7866 39.6728 15.5529L 36.4942 13.2157L 37.1019 9.28923C 37.1486 8.86854 36.9149 8.44784 36.4942 8.35436L 32.6145 7.41948L 31.6796 3.58647C 31.5861 3.16578 31.1654 2.88531 30.7447 2.9788L 26.8182 3.58647L 24.481 0.407886C 24.2006 0.0806783 23.7331 -0.0595535 23.3592 0.174166L 19.9936 2.18416L 16.628 0.127422C 16.2541 -0.106297 15.7866 -0.0128096 15.5062 0.361142L 13.169 3.53973L 9.24249 2.93206C 8.82179 2.88531 8.4011 3.11903 8.30761 3.53973L 7.37273 7.41948L 3.53973 8.35436C 3.11903 8.44784 2.83857 8.86854 2.93206 9.28923L 3.53973 13.2157L 0.361142 15.5529C 0.0339344 15.7866 -0.106297 16.3008 0.127422 16.6748L 2.18416 20.0403L 0.127422 23.4059C -0.106297 23.7799 -0.0128096 24.2473 0.361142 24.5278L 3.53973 26.865L 2.88531 30.7914C 2.83857 31.2121 3.07229 31.6328 3.49299 31.7263L 7.32599 32.6612L 8.26087 36.4942C 8.35436 36.9149 8.77505 37.1954 9.19575 37.1019L 13.1222 36.4942L 15.4594 39.6728C 15.5997 39.9065 15.8801 40 16.1138 40C 16.2541 40 16.3943 39.9533 16.5345 39.8598L 19.9001 37.803L 23.2657 39.8598C 23.6396 40.0935 24.1071 40 24.3875 39.626L 26.7247 36.4475L 30.6512 37.0551C 31.0719 37.1019 31.4926 36.8682 31.5861 36.4475L 32.521 32.6145L 36.354 31.6796C 36.7747 31.5861 37.0551 31.1654 36.9616 30.7447L 36.354 26.8182L 39.5326 24.481C 39.8598 24.2006 40 23.7331 39.7663 23.3592L 37.7095 19.9936ZM 35.0919 25.8833C 34.8582 26.0703 34.7179 26.3975 34.7647 26.678L 35.3256 30.324L 31.7263 31.2121C 31.3991 31.3056 31.1654 31.5393 31.1187 31.8198L 30.2305 35.4191L 26.5845 34.8582C 26.2573 34.8114 25.9768 34.9517 25.7898 35.1854L 23.5929 38.177L 20.4143 36.2605C 20.2741 36.167 20.1338 36.1203 19.9936 36.1203C 19.8534 36.1203 19.7131 36.167 19.5729 36.2605L 16.3943 38.177L 14.1973 35.1854C 14.0104 34.9517 13.6832 34.8114 13.4027 34.8582L 9.75667 35.4191L 8.86854 31.8198C 8.77505 31.4926 8.54133 31.2589 8.26087 31.2121L 4.66158 30.324L 5.22251 26.678C 5.26926 26.3508 5.12902 26.0703 4.8953 25.8833L 1.90369 23.6864L 3.82019 20.5078C 3.96043 20.2273 3.96043 19.9001 3.82019 19.6196L 1.90369 16.4411L 4.8953 14.2441C 5.12902 14.0571 5.26926 13.7299 5.22251 13.4494L 4.66158 9.80342L 8.26087 8.91528C 8.58807 8.82179 8.82179 8.58807 8.86854 8.30761L 9.75667 4.70833L 13.4027 5.26926C 13.7299 5.316 14.0104 5.17577 14.1973 4.94205L 16.3943 1.95044L 19.5729 3.86694C 19.8534 4.00717 20.1806 4.00717 20.461 3.86694L 23.6396 1.95044L 25.8366 4.94205C 26.0236 5.17577 26.3508 5.316 26.6312 5.26926L 30.2773 4.70833L 31.1654 8.30761C 31.2589 8.63482 31.4926 8.86854 31.7731 8.91528L 35.3724 9.80342L 34.8114 13.4494C 34.7647 13.7767 34.9049 14.0571 35.1386 14.2441L 38.1302 16.4411L 36.167 19.6196C 36.0268 19.9001 36.0268 20.2273 36.167 20.5078L 38.0835 23.6864L 35.0919 25.8833Z" fill="#184093"/>
</g>
</g>
</g>
</g>
</g>
</svg>

