<svg width="28" height="40" viewBox="0 0 28 40" version="1.1" xmlns="http://www.w3.org/2000/svg" xmlns:xlink="http://www.w3.org/1999/xlink">
<g id="Canvas" fill="none">
<g id="law">
<g id="Group">
<g id="Group_2">
<g id="Vector">
<path d="M 26.3223 0L 1.67765 0C 0.751064 0 -4.7998e-08 0.746144 -4.7998e-08 1.66666L -4.7998e-08 33.8832C -4.7998e-08 34.8038 0.751064 35.5499 1.67765 35.5499L 4.2864 35.5499L 4.2864 39.1666C 4.2864 39.6268 4.66188 39.9999 5.12512 40C 5.37037 40 5.60336 39.8934 5.76273 39.7082L 7.60815 37.5749L 9.45356 39.7082C 9.7547 40.058 10.2842 40.0991 10.6362 39.8C 10.8225 39.6417 10.9299 39.4102 10.9299 39.1666L 10.9299 35.5499L 26.3223 35.5499C 27.2489 35.5499 28 34.8038 28 33.8832L 28 1.66666C 28 0.746144 27.2489 0 26.3223 0ZM 8.24566 35.7249C 7.94452 35.3751 7.41501 35.3341 7.06302 35.6331C 7.02988 35.6613 6.99906 35.692 6.97064 35.7249L 5.96405 36.8916L 5.96405 33.7249C 7.0238 34.1215 8.1925 34.1215 9.25225 33.7249L 9.25225 36.8916L 8.24566 35.7249ZM 10.6531 29.2916C 10.6532 30.9677 9.29524 32.3317 7.60815 32.3499L 7.57459 32.3499C 5.8744 32.3499 4.49611 30.9806 4.49611 29.2916C 4.49611 27.6025 5.8744 26.2333 7.57459 26.2333C 9.27479 26.2333 10.6531 27.6025 10.6531 29.2916ZM 26.2804 33.8749L 10.9299 33.8749L 10.9299 32.6666C 12.8098 30.8441 12.8466 27.8525 11.0121 25.9849C 9.17759 24.1173 6.16631 24.0808 4.2864 25.9033C 2.40649 27.7258 2.36968 30.7173 4.20419 32.5849C 4.23125 32.6125 4.25861 32.6397 4.2864 32.6666L 4.2864 33.8749L 1.67765 33.8749L 1.67765 1.66666L 26.3223 1.66666L 26.2804 33.8749Z" fill="#184093"/>
</g>
</g>
</g>
<g id="Group_3">
<g id="Group_4">
<g id="Vector_2">
<path d="M 15.4176 -1.27156e-07L 0.838826 -1.27156e-07C 0.375585 -1.27156e-07 3.51985e-07 0.373124 3.51985e-07 0.833331C 3.51985e-07 1.29354 0.375585 1.66666 0.838826 1.66666L 15.4176 1.66666C 15.8809 1.66666 16.2564 1.29354 16.2564 0.833331C 16.2564 0.373124 15.881 -1.27156e-07 15.4176 -1.27156e-07Z" transform="translate(5.87109 6.59155)" fill="#184093"/>
</g>
</g>
</g>
<g id="Group_5">
<g id="Group_6">
<g id="Vector_3">
<path d="M 15.4176 -1.27156e-07L 0.838826 -1.27156e-07C 0.375585 -1.27156e-07 3.51985e-07 0.373124 3.51985e-07 0.833331C 3.51985e-07 1.29354 0.375585 1.66666 0.838826 1.66666L 15.4176 1.66666C 15.8809 1.66666 16.2564 1.29354 16.2564 0.833331C 16.2564 0.373124 15.881 -1.27156e-07 15.4176 -1.27156e-07Z" transform="translate(5.87109 11.3833)" fill="#184093"/>
</g>
</g>
</g>
<g id="Group_7">
<g id="Group_8">
<g id="Vector_4">
<path d="M 15.4176 -1.27156e-07L 0.838826 -1.27156e-07C 0.375585 -1.27156e-07 3.51985e-07 0.373124 3.51985e-07 0.833331C 3.51985e-07 1.29354 0.375585 1.66666 0.838826 1.66666L 15.4176 1.66666C 15.8809 1.66666 16.2564 1.29354 16.2564 0.833331C 16.2564 0.373124 15.881 -1.27156e-07 15.4176 -1.27156e-07Z" transform="translate(5.87109 16.175)" fill="#184093"/>
</g>
</g>
</g>
<g id="Group_9">
<g id="Group_10">
<g id="Vector_5">
<path d="M 15.4176 -1.27156e-07L 0.838826 -1.27156e-07C 0.375585 -1.27156e-07 3.51985e-07 0.373124 3.51985e-07 0.833331C 3.51985e-07 1.29354 0.375585 1.66666 0.838826 1.66666L 15.4176 1.66666C 15.8809 1.66666 16.2564 1.29354 16.2564 0.833331C 16.2564 0.373124 15.881 -1.27156e-07 15.4176 -1.27156e-07Z" transform="translate(5.87109 20.9666)" fill="#184093"/>
</g>
</g>
</g>
<g id="Group_11">
<g id="Group_12">
<g id="Vector_6">
<path d="M 7.4991 -1.27156e-07L 0.838826 -1.27156e-07C 0.375584 -1.27156e-07 0 0.373124 0 0.833331C 0 1.29354 0.375584 1.66666 0.838826 1.66666L 7.4991 1.66666C 7.96234 1.66666 8.33793 1.29354 8.33793 0.833331C 8.33793 0.373124 7.96245 -1.27156e-07 7.4991 -1.27156e-07Z" transform="translate(13.79 25.7583)" fill="#184093"/>
</g>
</g>
</g>
</g>
</g>
</svg>

