<svg width="40" height="40" viewBox="0 0 40 40" version="1.1" xmlns="http://www.w3.org/2000/svg" xmlns:xlink="http://www.w3.org/1999/xlink">
<g id="Canvas" fill="none">
<g id="magnifier-with-an-eye">
<g id="Group">
<g id="Group_2">
<g id="Vector">
<path d="M 35.2536 27.6999C 41.5818 21.3716 41.5816 11.0746 35.2536 4.74624C 28.9253 -1.58208 18.6283 -1.58208 12.3001 4.74624C 6.93136 10.115 6.11827 18.0996 9.85875 24.3348C 9.85875 24.3348 10.1274 24.7852 9.76455 25.1481C 7.69458 27.2181 1.48391 33.4289 1.48391 33.4289C -0.164302 35.077 -0.556802 37.3816 0.904828 38.8435L 1.15649 39.0949C 2.61825 40.5568 4.92299 40.1645 6.57108 38.5163C 6.57108 38.5163 12.7686 32.3186 14.8346 30.2529C 15.2147 29.8727 15.6653 30.1413 15.6653 30.1413C 21.9002 33.8815 29.8849 33.0686 35.2536 27.6999ZM 15.2968 24.7033C 10.6208 20.0273 10.6209 12.4191 15.2968 7.74308C 19.9728 3.06723 27.581 3.0671 32.2569 7.74308C 36.9328 12.4189 36.9328 20.0273 32.2569 24.7033C 27.5809 29.3791 19.9726 29.3791 15.2968 24.7033Z" fill="#184093"/>
</g>
<g id="Group_3">
<g id="Vector_2">
<path d="M 8.87068 3.93242e-08C 3.97152 3.93242e-08 1.73026e-07 4.88627 1.73026e-07 5.68455C 1.73026e-07 6.45924 3.97139 11.369 8.87068 11.369C 13.7698 11.369 17.7414 6.4814 17.7414 5.68455C 17.7414 4.88898 13.77 3.93242e-08 8.87068 3.93242e-08ZM 8.87068 9.73015C 6.63616 9.73015 4.82494 7.91868 4.82494 5.68442C 4.82494 3.45016 6.63629 1.63868 8.87068 1.63868C 11.1051 1.63868 12.9163 3.45003 12.9163 5.68442C 12.9163 7.91881 11.1051 9.73015 8.87068 9.73015Z" transform="translate(14.9561 10.6216)" fill="#184093"/>
</g>
<g id="Vector_3">
<path d="M 2.06095 4.12189C 3.19918 4.12189 4.12189 3.19917 4.12189 2.06095C 4.12189 0.922717 3.19918 0 2.06095 0C 0.922718 0 0 0.922717 0 2.06095C 0 3.19917 0.922718 4.12189 2.06095 4.12189Z" transform="translate(21.7656 14.2451)" fill="#184093"/>
</g>
</g>
</g>
</g>
</g>
</g>
</svg>

