<svg width="40" height="32" viewBox="0 0 40 32" version="1.1" xmlns="http://www.w3.org/2000/svg" xmlns:xlink="http://www.w3.org/1999/xlink">
<g id="Canvas" fill="none">
<g id="box (1)">
<g id="Group">
<g id="Group_2">
<g id="Vector">
<path d="M 2.21543 1.13925C 2.17041 0.530351 1.70067 0.0464661 1.10948 -9.38102e-07C 0.44828 0.051917 -0.0467957 0.64607 0.00351843 1.32708C 0.0485409 1.93598 0.518286 2.41986 1.10948 2.46633C 1.77067 2.4145 2.26575 1.82026 2.21543 1.13925Z" transform="translate(26.0605 25.5376)" fill="white"/>
</g>
</g>
</g>
<g id="Group_3">
<g id="Group_4">
<g id="Vector_2">
<path d="M 2.21543 1.13924C 2.17041 0.530348 1.70067 0.0464664 1.10948 -6.10857e-07C 0.448278 0.0519173 -0.0467949 0.646071 0.00351928 1.32708C 0.0485418 1.93598 0.518284 2.41986 1.10948 2.46633C 1.77067 2.4145 2.26575 1.82025 2.21543 1.13924Z" transform="translate(28.9883 24.4795)" fill="white"/>
</g>
</g>
</g>
<g id="Group_5">
<g id="Group_6">
<g id="Vector_3">
<path d="M 39.9945 6.80773L 39.9945 6.75054C 39.9794 6.71078 39.9608 6.67253 39.939 6.63616L 39.8974 6.57897L 39.8141 6.48604L 39.7655 6.44314L 39.6753 6.40025L 39.6406 6.40025L 24.5672 0.0521414C 24.4003 -0.0173804 24.2136 -0.0173804 24.0467 0.0521414L 9.00797 6.29302L 8.97327 6.29302L 8.88305 6.33591L 8.83447 6.3788L 8.75119 6.47174L 8.70955 6.52893C 8.68778 6.5653 8.66921 6.60354 8.65403 6.64331L 8.65403 6.7005C 8.64674 6.75983 8.64674 6.81988 8.65403 6.87922L 8.65403 12.5982L 0.693988 12.5982C 0.310733 12.5982 0 12.9183 0 13.3131C 0 13.7079 0.310733 14.028 0.693988 14.028L 0.693988 14.1209L 8.57075 14.1209L 8.57075 16.5658L 5.87114 16.5658C 5.48788 16.5658 5.17715 16.8859 5.17715 17.2807C 5.17715 17.6755 5.48788 17.9956 5.87114 17.9956L 8.57075 17.9956L 8.57075 20.4404L 2.17218 20.4404C 1.78893 20.4404 1.47819 20.7605 1.47819 21.1553C 1.47819 21.5501 1.78893 21.8702 2.17218 21.8702L 8.57075 21.8702L 8.57075 24.8584C 8.57214 25.147 8.74191 25.4064 9.00103 25.5161L 24.0467 31.95C 24.1219 31.9807 24.2018 31.9976 24.2826 32C 24.3635 31.9976 24.4434 31.9807 24.5186 31.95L 39.5643 25.5161C 39.8234 25.4064 39.9931 25.147 39.9945 24.8584L 39.9945 6.98645C 40.0018 6.92711 40.0018 6.86707 39.9945 6.80773ZM 24.3035 1.50334L 30.008 3.85529L 17.0305 9.50997L 11.0969 6.965L 24.3035 1.50334ZM 23.5887 30.2271L 9.95873 24.3794L 9.95873 21.863L 12.8388 21.863C 13.222 21.863 13.5328 21.543 13.5328 21.1482C 13.5328 20.7534 13.222 20.4333 12.8388 20.4333L 9.95873 20.4333L 9.95873 17.9884L 16.5516 17.9884C 16.9349 17.9884 17.2456 17.6683 17.2456 17.2735C 17.2456 16.8787 16.9349 16.5587 16.5516 16.5587L 9.95873 16.5587L 9.95873 14.1209L 11.3467 14.1209C 11.73 14.1209 12.0407 13.8008 12.0407 13.406C 12.0407 13.0113 11.73 12.6912 11.3467 12.6912L 9.95873 12.6912L 9.95873 8.03017L 15.2608 10.2892L 23.5887 13.8636L 23.5887 30.2271ZM 24.3104 12.6554L 18.8279 10.2892L 31.8194 4.61306L 37.5031 6.97215L 29.2238 10.5465L 24.3104 12.6554ZM 24.9975 30.2271L 24.9975 13.8636L 28.9046 12.1908L 38.6204 8.01587L 38.6551 24.3794L 24.9975 30.2271Z" fill="white"/>
</g>
</g>
</g>
</g>
</g>
</svg>

