<svg width="42" height="40" viewBox="0 0 42 40" version="1.1" xmlns="http://www.w3.org/2000/svg" xmlns:xlink="http://www.w3.org/1999/xlink">
<g id="Canvas" fill="none">
<g id="tools">
<g id="Group">
<g id="Group_2">
<g id="Vector">
<path d="M 41.2729 30.7023C 40.9256 29.5629 40.3012 28.5275 39.4554 27.6889C 38.1083 26.3343 36.2752 25.5751 34.3648 25.5803C 33.3885 25.5808 32.4223 25.7788 31.5245 26.1625L 24.4434 19.0814L 33.8455 9.75L 36.0722 9.68706C 36.3415 9.67889 36.5879 9.53334 36.7252 9.30153L 39.9117 3.94347C 40.0969 3.63426 40.0482 3.2387 39.7937 2.98358L 37.0399 0.229805C 36.7848 -0.0247223 36.3892 -0.0734051 36.08 0.111786L 30.722 3.2983C 30.4902 3.43559 30.3446 3.68196 30.3364 3.95134L 30.2735 6.17009L 20.8949 15.5329L 14.459 9.09696C 15.1347 5.17883 12.5062 1.45474 8.58812 0.778987C 6.77269 0.465843 4.90622 0.860616 3.37306 1.88207C 3.0131 2.12548 2.91859 2.61457 3.162 2.97453C 3.23045 3.07573 3.32152 3.15963 3.42813 3.21962L 7.00017 5.2102C 7.78696 5.65868 7.94432 6.99622 7.30702 8.12921C 6.66972 9.26219 5.45019 9.84441 4.65553 9.40381L 1.34313 7.60992C 0.962422 7.40044 0.483954 7.53931 0.274569 7.92002C 0.20238 8.05112 0.169138 8.20012 0.178777 8.34951C 0.427698 12.3177 3.84641 15.3327 7.8146 15.0838C 8.63444 15.0323 9.43943 14.8409 10.1946 14.518L 16.0484 20.3717L 13.5149 22.9052L 12.9406 22.3387C 12.3047 21.7302 11.3026 21.7302 10.6667 22.3387L 9.87993 23.1255C 9.28049 23.7091 9.24253 24.6596 9.79338 25.2892L 0.485626 34.5812C -0.142235 35.182 -0.164167 36.1782 0.436648 36.806C 0.45258 36.8228 0.468906 36.8391 0.485626 36.855L 3.14499 39.5144C 3.7458 40.1422 4.74198 40.1642 5.36984 39.5634C 5.38656 39.5474 5.40288 39.5311 5.41882 39.5144L 14.7344 30.2066C 15.364 30.7575 16.3145 30.7195 16.8981 30.1201L 17.6849 29.3333C 18.3128 28.7325 18.3347 27.7363 17.7339 27.1084C 17.718 27.0917 17.7016 27.0754 17.6849 27.0594L 17.1106 26.4851L 19.6283 23.9123L 27.2602 31.5442C 26.6009 35.4651 29.2449 39.1781 33.1659 39.8374C 35.4883 40.228 37.8548 39.4579 39.5027 37.7756C 39.7916 37.451 39.7629 36.9538 39.4384 36.6647C 39.3546 36.5901 39.2557 36.5342 39.1486 36.501L 34.719 35.3129C 34.2849 35.1733 33.9412 34.8385 33.7906 34.4081C 33.5604 33.8147 33.5328 33.162 33.7119 32.5513C 34.0423 31.316 35.0888 30.4348 35.97 30.6708L 40.3524 31.851C 40.4228 31.8612 40.4944 31.8612 40.5649 31.851C 40.9994 31.8563 41.3559 31.5084 41.3611 31.0739C 41.3626 30.9446 41.3324 30.817 41.2729 30.7023ZM 31.5875 7.04343C 31.7291 6.90083 31.8107 6.70934 31.8156 6.50841L 31.8786 4.40768L 36.3397 1.75618L 38.228 3.64449L 35.6316 8.09773L 33.4915 8.17641C 33.2906 8.18133 33.0991 8.26296 32.9565 8.40458L 23.3576 17.9956L 22.0043 16.6423L 31.5875 7.04343ZM 4.30147 38.3971L 1.60277 35.7142L 10.9577 26.3828L 12.311 27.7361L 13.6014 29.0736L 4.30147 38.3971ZM 15.8123 28.9556L 14.7737 27.9092L 14.3724 27.5079L 11.0679 24.1798L 11.8547 23.393L 16.5754 28.1767L 15.8123 28.9556ZM 15.9617 25.3678L 14.6085 24.0146L 17.1419 21.4811L 18.4952 22.8344L 15.9617 25.3678ZM 36.3554 29.1523C 36.1219 29.0896 35.8812 29.0578 35.6394 29.0579C 33.9241 29.1964 32.5083 30.4548 32.1697 32.1421C 31.9012 33.0896 31.9537 34.0994 32.3192 35.0139C 32.6564 35.894 33.3878 36.5643 34.294 36.8235L 37.2209 37.6103C 34.5519 39.2007 31.0989 38.3264 29.5085 35.6575C 28.7616 34.4041 28.531 32.9094 28.8651 31.4891C 28.925 31.2249 28.8448 30.9485 28.6527 30.7574L 10.9184 13.0073C 10.6666 12.7708 10.29 12.7261 9.98998 12.8972C 9.17752 13.3259 8.27281 13.5501 7.35423 13.5502C 4.98706 13.5523 2.87266 12.0703 2.06698 9.84441L 3.86087 10.8436C 4.27905 11.0778 4.75063 11.1998 5.22989 11.1977C 6.68664 11.1138 7.98956 10.2632 8.65244 8.96321C 9.72247 7.0513 9.30547 4.77747 7.73189 3.89626L 5.44232 2.59805C 8.36821 1.5529 11.5873 3.0776 12.6324 6.00339C 12.9951 7.01894 13.0584 8.11731 12.8146 9.16777C 12.7547 9.43194 12.8349 9.7084 13.027 9.89949L 30.8007 27.6653C 31.0436 27.9085 31.4163 27.9659 31.7212 27.8069C 32.5338 27.3785 33.4384 27.1543 34.357 27.1539C 36.3493 27.1523 38.1935 28.2061 39.2036 29.9234L 36.3554 29.1523Z" fill="#184093"/>
</g>
</g>
</g>
</g>
</g>
</svg>

