<svg width="34" height="40" viewBox="0 0 34 40" version="1.1" xmlns="http://www.w3.org/2000/svg" xmlns:xlink="http://www.w3.org/1999/xlink">
<g id="Canvas" fill="none">
<g id="automobile-with-wrench">
<g id="Group">
<g id="Vector">
<path d="M 9.15244 21.8597C 11.8836 21.8597 18.305 18.6413 18.305 10.9297C 18.305 9.85407 18.2783 8.81498 18.1877 7.8332C 18.0391 5.901 17.6349 4.18862 16.6286 2.87629C 15.3378 1.09041 13.0795 0 9.15244 0C 5.2261 0 2.96791 1.08997 1.67709 2.87529C 0.670088 4.18795 0.265703 5.90078 0.117172 7.83364C 0.0267171 8.81531 2.22262e-08 9.85429 2.22262e-08 10.9298C -0.000113187 18.6413 6.42125 21.8597 9.15244 21.8597ZM 12.1399 4.00417C 11.8734 4.66383 11.7398 4.99371 11.4731 5.65326C 9.75132 5.17694 8.55333 5.17694 6.83153 5.65326C 6.56492 4.99371 6.43133 4.66383 6.16461 4.00417C 8.31797 3.3659 9.98691 3.36602 12.1399 4.00417ZM 1.36146 9.25771C 1.46697 9.4835 1.91494 10.3518 2.60835 10.4331C 3.40546 10.5268 4.72854 7.66914 9.15244 7.66216C 13.5762 7.66914 14.8994 10.5268 15.6965 10.4331C 16.3899 10.3517 16.8379 9.4835 16.9434 9.25771C 16.9648 9.81106 16.9727 10.3713 16.9727 10.9298C 16.9727 14.6992 15.2729 17.0348 13.8468 18.3303C 12.05 19.9628 10.0551 20.5552 9.15255 20.5552C 8.25004 20.5552 6.25506 19.9628 4.45831 18.3303C 3.0321 17.0348 1.33236 14.6992 1.33236 10.9298C 1.33225 10.3713 1.34006 9.81106 1.36146 9.25771Z" transform="translate(7.84766 0)" fill="#184093"/>
</g>
<g id="Vector_2">
<path d="M 33.9918 12.2245C 33.5245 9.37973 32.5627 5.71509 30.6331 4.41284C 29.3154 3.52318 24.7181 1.11832 22.755 0.0914276L 22.7218 0.0741363C 22.4974 -0.0432519 22.2233 -0.0196412 22.0234 0.134105C 20.995 0.924563 19.8686 1.4573 18.6754 1.71746C 18.4646 1.76346 18.2915 1.91011 18.215 2.10776L 17 5.24376L 15.7848 2.10776C 15.7084 1.91011 15.5354 1.76346 15.3245 1.71746C 14.1313 1.4573 13.0049 0.924563 11.9766 0.134105C 11.7762 -0.019752 11.5024 -0.0432519 11.278 0.0741363C 9.33827 1.08906 4.68478 3.54302 3.37268 4.40907C 1.15139 5.87415 0.180282 11.1766 0.0080898 12.2246C -0.00889165 12.3286 0.000957617 12.4349 0.0367319 12.5342C 0.0838271 12.6644 0.818445 14.5275 4.49233 16.0255C 4.70414 15.7641 4.98626 15.5659 5.30359 15.4544C 4.90939 15.3174 4.56727 15.0488 4.34844 14.6884C 4.02239 14.1512 4.01028 13.4771 4.31606 12.9305C 5.25796 11.2423 7.06185 10.1919 9.02603 10.1894C 10.853 10.1894 12.5092 11.0783 13.4926 12.523L 20.5032 12.523C 20.6957 12.2416 20.9164 11.9783 21.1642 11.735C 22.1774 10.7401 23.5254 10.1911 24.96 10.1891L 24.9611 10.1891L 24.9622 10.1891C 26.9248 10.1891 28.731 11.2338 29.6762 12.9162C 29.9825 13.4623 29.9722 14.135 29.6481 14.6739C 29.4305 15.0345 29.0893 15.304 28.6955 15.4422C 29.0184 15.5542 29.3049 15.7554 29.5183 16.0213C 33.1828 14.5241 33.9163 12.6644 33.9634 12.5345C 33.9991 12.4348 34.0089 12.3284 33.9918 12.2245Z" transform="translate(0 20.8447)" fill="#184093"/>
</g>
<g id="Vector_3">
<path d="M 22.414 5.15133L 22.4135 5.15133L 19.0358 5.15588C 18.9759 5.01666 18.8609 4.63002 18.8597 3.70765C 18.8582 2.78517 18.9718 2.39787 19.0316 2.25831L 22.4084 2.25343C 22.4891 2.25299 22.5636 2.21142 22.6045 2.14347C 22.6456 2.0753 22.6467 1.9915 22.608 1.92233C 21.9418 0.736474 20.6704 6.22438e-07 19.2831 6.22438e-07C 18.2717 0.00144165 17.3217 0.388523 16.6077 1.08975C 16.2397 1.45089 15.959 1.87389 15.7718 2.33402L 6.86585 2.33402C 6.30671 0.968924 4.94219 0.000332139 3.34707 0.000332139C 1.96398 0.00221656 0.692186 0.742905 0.0279851 1.93364C -0.0107326 2.0028 -0.0091481 2.08694 0.031947 2.15467C 0.0730421 2.22239 0.147534 2.26374 0.228026 2.26374L 0.228253 2.26374L 3.60598 2.25853C 3.66609 2.39776 3.78089 2.78439 3.78202 3.70709C 3.7836 4.62968 3.66994 5.01676 3.61017 5.1561L 0.233347 5.16109C 0.152855 5.1612 0.0783635 5.2031 0.0372684 5.27083C -0.00360029 5.33878 -0.0049596 5.42291 0.0339845 5.49208C 0.699997 6.67782 1.9718 7.41486 3.35307 7.41486L 3.35861 7.41486C 4.37026 7.4133 5.32008 7.02622 6.03432 6.32488C 6.40226 5.96352 6.6829 5.54041 6.86993 5.08028L 15.7757 5.08028C 16.3349 6.44582 17.6984 7.4143 19.2896 7.41452C 19.2896 7.41452 19.2947 7.41452 19.2949 7.41452C 20.6778 7.41264 21.9498 6.67151 22.614 5.48155C 22.6527 5.41227 22.6511 5.32803 22.61 5.26041C 22.5689 5.19268 22.4944 5.15133 22.414 5.15133Z" transform="translate(5.67871 32.585)" fill="#184093"/>
</g>
</g>
</g>
</g>
</svg>

